<mxfile host="app.diagrams.net" modified="2021-12-07T13:47:47.558Z" agent="5.0 (Windows NT 10.0; Win64; x64) AppleWebKit/537.36 (KHTML, like Gecko) Chrome/96.0.4664.93 Safari/537.36" etag="vEDT3JKn-dchzhf9mv8y" version="15.9.1" type="github">
  <diagram id="R-0LJIg4740oiYrScQ-5" name="第 1 页">
    <mxGraphModel dx="782" dy="506" grid="0" gridSize="10" guides="1" tooltips="1" connect="1" arrows="1" fold="1" page="0" pageScale="1" pageWidth="827" pageHeight="1169" math="0" shadow="0">
      <root>
        <mxCell id="0" />
        <mxCell id="1" parent="0" />
        <mxCell id="kZnqD4HNdVJVELvwvlzz-5" value="" style="ellipse;whiteSpace=wrap;html=1;aspect=fixed;" vertex="1" parent="1">
          <mxGeometry x="134" y="293" width="26" height="26" as="geometry" />
        </mxCell>
        <mxCell id="kZnqD4HNdVJVELvwvlzz-6" value="" style="ellipse;whiteSpace=wrap;html=1;aspect=fixed;" vertex="1" parent="1">
          <mxGeometry x="134" y="347" width="26" height="26" as="geometry" />
        </mxCell>
        <mxCell id="kZnqD4HNdVJVELvwvlzz-16" value="" style="ellipse;whiteSpace=wrap;html=1;aspect=fixed;" vertex="1" parent="1">
          <mxGeometry x="134" y="399" width="26" height="26" as="geometry" />
        </mxCell>
        <mxCell id="kZnqD4HNdVJVELvwvlzz-17" value="" style="ellipse;whiteSpace=wrap;html=1;aspect=fixed;" vertex="1" parent="1">
          <mxGeometry x="134" y="449" width="26" height="26" as="geometry" />
        </mxCell>
        <mxCell id="kZnqD4HNdVJVELvwvlzz-18" value="" style="ellipse;whiteSpace=wrap;html=1;aspect=fixed;" vertex="1" parent="1">
          <mxGeometry x="134" y="499" width="26" height="26" as="geometry" />
        </mxCell>
        <mxCell id="kZnqD4HNdVJVELvwvlzz-19" value="" style="ellipse;whiteSpace=wrap;html=1;aspect=fixed;" vertex="1" parent="1">
          <mxGeometry x="134" y="553" width="26" height="26" as="geometry" />
        </mxCell>
        <mxCell id="kZnqD4HNdVJVELvwvlzz-20" value="" style="ellipse;whiteSpace=wrap;html=1;aspect=fixed;" vertex="1" parent="1">
          <mxGeometry x="277" y="362" width="26" height="26" as="geometry" />
        </mxCell>
        <mxCell id="kZnqD4HNdVJVELvwvlzz-21" value="" style="ellipse;whiteSpace=wrap;html=1;aspect=fixed;" vertex="1" parent="1">
          <mxGeometry x="277" y="396" width="26" height="26" as="geometry" />
        </mxCell>
        <mxCell id="kZnqD4HNdVJVELvwvlzz-24" value="" style="ellipse;whiteSpace=wrap;html=1;aspect=fixed;" vertex="1" parent="1">
          <mxGeometry x="403" y="364" width="26" height="26" as="geometry" />
        </mxCell>
        <mxCell id="kZnqD4HNdVJVELvwvlzz-25" value="" style="ellipse;whiteSpace=wrap;html=1;aspect=fixed;" vertex="1" parent="1">
          <mxGeometry x="403" y="408" width="26" height="26" as="geometry" />
        </mxCell>
        <mxCell id="kZnqD4HNdVJVELvwvlzz-26" value="" style="ellipse;whiteSpace=wrap;html=1;aspect=fixed;" vertex="1" parent="1">
          <mxGeometry x="403" y="452" width="26" height="26" as="geometry" />
        </mxCell>
        <mxCell id="kZnqD4HNdVJVELvwvlzz-27" value="" style="ellipse;whiteSpace=wrap;html=1;aspect=fixed;" vertex="1" parent="1">
          <mxGeometry x="403" y="496" width="26" height="26" as="geometry" />
        </mxCell>
        <mxCell id="kZnqD4HNdVJVELvwvlzz-32" value="" style="ellipse;whiteSpace=wrap;html=1;aspect=fixed;" vertex="1" parent="1">
          <mxGeometry x="277" y="430" width="26" height="26" as="geometry" />
        </mxCell>
        <mxCell id="kZnqD4HNdVJVELvwvlzz-33" value="" style="ellipse;whiteSpace=wrap;html=1;aspect=fixed;" vertex="1" parent="1">
          <mxGeometry x="277" y="464" width="26" height="26" as="geometry" />
        </mxCell>
        <mxCell id="kZnqD4HNdVJVELvwvlzz-34" value="" style="ellipse;whiteSpace=wrap;html=1;aspect=fixed;" vertex="1" parent="1">
          <mxGeometry x="277" y="498" width="26" height="26" as="geometry" />
        </mxCell>
        <mxCell id="kZnqD4HNdVJVELvwvlzz-35" value="" style="ellipse;whiteSpace=wrap;html=1;aspect=fixed;" vertex="1" parent="1">
          <mxGeometry x="277" y="532" width="26" height="26" as="geometry" />
        </mxCell>
        <mxCell id="kZnqD4HNdVJVELvwvlzz-36" value="" style="ellipse;whiteSpace=wrap;html=1;aspect=fixed;" vertex="1" parent="1">
          <mxGeometry x="277" y="324" width="26" height="26" as="geometry" />
        </mxCell>
        <mxCell id="kZnqD4HNdVJVELvwvlzz-40" value="" style="endArrow=none;html=1;rounded=0;entryX=0;entryY=0.5;entryDx=0;entryDy=0;" edge="1" parent="1" target="kZnqD4HNdVJVELvwvlzz-36">
          <mxGeometry width="50" height="50" relative="1" as="geometry">
            <mxPoint x="159" y="306" as="sourcePoint" />
            <mxPoint x="264" y="337" as="targetPoint" />
          </mxGeometry>
        </mxCell>
        <mxCell id="kZnqD4HNdVJVELvwvlzz-41" value="" style="endArrow=none;html=1;rounded=0;entryX=0;entryY=0.5;entryDx=0;entryDy=0;" edge="1" parent="1" target="kZnqD4HNdVJVELvwvlzz-36">
          <mxGeometry width="50" height="50" relative="1" as="geometry">
            <mxPoint x="160" y="306" as="sourcePoint" />
            <mxPoint x="264" y="337" as="targetPoint" />
          </mxGeometry>
        </mxCell>
        <mxCell id="kZnqD4HNdVJVELvwvlzz-43" value="" style="endArrow=none;html=1;rounded=0;entryX=0;entryY=0.5;entryDx=0;entryDy=0;" edge="1" parent="1" target="kZnqD4HNdVJVELvwvlzz-20">
          <mxGeometry width="50" height="50" relative="1" as="geometry">
            <mxPoint x="160" y="306" as="sourcePoint" />
            <mxPoint x="264" y="337" as="targetPoint" />
          </mxGeometry>
        </mxCell>
        <mxCell id="kZnqD4HNdVJVELvwvlzz-44" value="" style="endArrow=none;html=1;rounded=0;entryX=0;entryY=0.5;entryDx=0;entryDy=0;" edge="1" parent="1" target="kZnqD4HNdVJVELvwvlzz-21">
          <mxGeometry width="50" height="50" relative="1" as="geometry">
            <mxPoint x="160" y="306" as="sourcePoint" />
            <mxPoint x="264" y="337" as="targetPoint" />
          </mxGeometry>
        </mxCell>
        <mxCell id="kZnqD4HNdVJVELvwvlzz-45" value="" style="endArrow=none;html=1;rounded=0;entryX=0;entryY=0.5;entryDx=0;entryDy=0;" edge="1" parent="1" target="kZnqD4HNdVJVELvwvlzz-32">
          <mxGeometry width="50" height="50" relative="1" as="geometry">
            <mxPoint x="160" y="306" as="sourcePoint" />
            <mxPoint x="264" y="337" as="targetPoint" />
          </mxGeometry>
        </mxCell>
        <mxCell id="kZnqD4HNdVJVELvwvlzz-46" value="" style="endArrow=none;html=1;rounded=0;entryX=0;entryY=0.5;entryDx=0;entryDy=0;" edge="1" parent="1" target="kZnqD4HNdVJVELvwvlzz-33">
          <mxGeometry width="50" height="50" relative="1" as="geometry">
            <mxPoint x="160" y="306" as="sourcePoint" />
            <mxPoint x="264" y="337" as="targetPoint" />
          </mxGeometry>
        </mxCell>
        <mxCell id="kZnqD4HNdVJVELvwvlzz-47" value="" style="endArrow=none;html=1;rounded=0;entryX=0;entryY=0.5;entryDx=0;entryDy=0;" edge="1" parent="1" target="kZnqD4HNdVJVELvwvlzz-34">
          <mxGeometry width="50" height="50" relative="1" as="geometry">
            <mxPoint x="160" y="306" as="sourcePoint" />
            <mxPoint x="264" y="337" as="targetPoint" />
          </mxGeometry>
        </mxCell>
        <mxCell id="kZnqD4HNdVJVELvwvlzz-48" value="" style="endArrow=none;html=1;rounded=0;entryX=0;entryY=0.5;entryDx=0;entryDy=0;" edge="1" parent="1" target="kZnqD4HNdVJVELvwvlzz-35">
          <mxGeometry width="50" height="50" relative="1" as="geometry">
            <mxPoint x="160" y="306" as="sourcePoint" />
            <mxPoint x="264" y="337" as="targetPoint" />
          </mxGeometry>
        </mxCell>
        <mxCell id="kZnqD4HNdVJVELvwvlzz-49" value="" style="endArrow=none;html=1;rounded=0;entryX=1;entryY=0.5;entryDx=0;entryDy=0;exitX=0;exitY=0.5;exitDx=0;exitDy=0;" edge="1" parent="1" source="kZnqD4HNdVJVELvwvlzz-36" target="kZnqD4HNdVJVELvwvlzz-6">
          <mxGeometry width="50" height="50" relative="1" as="geometry">
            <mxPoint x="27" y="413" as="sourcePoint" />
            <mxPoint x="77" y="363" as="targetPoint" />
          </mxGeometry>
        </mxCell>
        <mxCell id="kZnqD4HNdVJVELvwvlzz-50" value="" style="endArrow=none;html=1;rounded=0;entryX=1;entryY=0.5;entryDx=0;entryDy=0;exitX=0;exitY=0.5;exitDx=0;exitDy=0;" edge="1" parent="1" source="kZnqD4HNdVJVELvwvlzz-20" target="kZnqD4HNdVJVELvwvlzz-6">
          <mxGeometry width="50" height="50" relative="1" as="geometry">
            <mxPoint x="27" y="413" as="sourcePoint" />
            <mxPoint x="77" y="363" as="targetPoint" />
          </mxGeometry>
        </mxCell>
        <mxCell id="kZnqD4HNdVJVELvwvlzz-51" value="" style="endArrow=none;html=1;rounded=0;entryX=1;entryY=0.5;entryDx=0;entryDy=0;exitX=0;exitY=0.5;exitDx=0;exitDy=0;" edge="1" parent="1" source="kZnqD4HNdVJVELvwvlzz-21" target="kZnqD4HNdVJVELvwvlzz-6">
          <mxGeometry width="50" height="50" relative="1" as="geometry">
            <mxPoint x="27" y="413" as="sourcePoint" />
            <mxPoint x="77" y="363" as="targetPoint" />
          </mxGeometry>
        </mxCell>
        <mxCell id="kZnqD4HNdVJVELvwvlzz-52" value="" style="endArrow=none;html=1;rounded=0;entryX=1;entryY=0.5;entryDx=0;entryDy=0;exitX=0;exitY=0.5;exitDx=0;exitDy=0;" edge="1" parent="1" source="kZnqD4HNdVJVELvwvlzz-32" target="kZnqD4HNdVJVELvwvlzz-6">
          <mxGeometry width="50" height="50" relative="1" as="geometry">
            <mxPoint x="27" y="413" as="sourcePoint" />
            <mxPoint x="77" y="363" as="targetPoint" />
          </mxGeometry>
        </mxCell>
        <mxCell id="kZnqD4HNdVJVELvwvlzz-53" value="" style="endArrow=none;html=1;rounded=0;entryX=1;entryY=0.5;entryDx=0;entryDy=0;exitX=0;exitY=0.5;exitDx=0;exitDy=0;" edge="1" parent="1" source="kZnqD4HNdVJVELvwvlzz-33" target="kZnqD4HNdVJVELvwvlzz-6">
          <mxGeometry width="50" height="50" relative="1" as="geometry">
            <mxPoint x="27" y="413" as="sourcePoint" />
            <mxPoint x="77" y="363" as="targetPoint" />
          </mxGeometry>
        </mxCell>
        <mxCell id="kZnqD4HNdVJVELvwvlzz-54" value="" style="endArrow=none;html=1;rounded=0;entryX=1;entryY=0.5;entryDx=0;entryDy=0;exitX=0;exitY=0.5;exitDx=0;exitDy=0;" edge="1" parent="1" source="kZnqD4HNdVJVELvwvlzz-34" target="kZnqD4HNdVJVELvwvlzz-6">
          <mxGeometry width="50" height="50" relative="1" as="geometry">
            <mxPoint x="27" y="413" as="sourcePoint" />
            <mxPoint x="77" y="363" as="targetPoint" />
          </mxGeometry>
        </mxCell>
        <mxCell id="kZnqD4HNdVJVELvwvlzz-55" value="" style="endArrow=none;html=1;rounded=0;entryX=1;entryY=0.5;entryDx=0;entryDy=0;exitX=0;exitY=0.5;exitDx=0;exitDy=0;" edge="1" parent="1" source="kZnqD4HNdVJVELvwvlzz-35" target="kZnqD4HNdVJVELvwvlzz-6">
          <mxGeometry width="50" height="50" relative="1" as="geometry">
            <mxPoint x="27" y="413" as="sourcePoint" />
            <mxPoint x="77" y="363" as="targetPoint" />
          </mxGeometry>
        </mxCell>
      </root>
    </mxGraphModel>
  </diagram>
</mxfile>
